<mxfile host="app.diagrams.net" modified="2021-09-30T01:50:06.147Z" agent="5.0 (Macintosh; Intel Mac OS X 10_14_6) AppleWebKit/537.36 (KHTML, like Gecko) Chrome/94.0.4606.61 Safari/537.36" etag="uziDJzvqhM-l_nrv4G5P" version="15.3.5" type="github">
  <diagram id="Qt3uoE0DWcE7c9tcOyd0" name="Page-1">
    <mxGraphModel dx="786" dy="514" grid="1" gridSize="10" guides="1" tooltips="1" connect="1" arrows="1" fold="1" page="1" pageScale="1" pageWidth="1100" pageHeight="850" math="0" shadow="0">
      <root>
        <mxCell id="0" />
        <mxCell id="1" parent="0" />
        <mxCell id="QFJzrtwfQx3YCAmN0TuH-2" value="Users" style="shape=umlActor;verticalLabelPosition=bottom;verticalAlign=top;html=1;outlineConnect=0;hachureGap=4;pointerEvents=0;" vertex="1" parent="1">
          <mxGeometry x="60" y="170" width="30" height="60" as="geometry" />
        </mxCell>
        <mxCell id="QFJzrtwfQx3YCAmN0TuH-4" value="Drivers" style="shape=umlActor;verticalLabelPosition=bottom;verticalAlign=top;html=1;outlineConnect=0;hachureGap=4;pointerEvents=0;" vertex="1" parent="1">
          <mxGeometry x="60" y="390" width="30" height="60" as="geometry" />
        </mxCell>
        <mxCell id="QFJzrtwfQx3YCAmN0TuH-7" value="" style="group" vertex="1" connectable="0" parent="1">
          <mxGeometry x="320" y="160" width="140" height="80" as="geometry" />
        </mxCell>
        <mxCell id="QFJzrtwfQx3YCAmN0TuH-1" value="Aggregation&lt;br&gt;Service" style="rounded=0;whiteSpace=wrap;html=1;hachureGap=4;pointerEvents=0;" vertex="1" parent="QFJzrtwfQx3YCAmN0TuH-7">
          <mxGeometry width="120" height="60" as="geometry" />
        </mxCell>
        <mxCell id="QFJzrtwfQx3YCAmN0TuH-5" value="Aggregation&lt;br&gt;Service" style="rounded=0;whiteSpace=wrap;html=1;hachureGap=4;pointerEvents=0;" vertex="1" parent="QFJzrtwfQx3YCAmN0TuH-7">
          <mxGeometry x="10" y="10" width="120" height="60" as="geometry" />
        </mxCell>
        <mxCell id="QFJzrtwfQx3YCAmN0TuH-6" value="Aggregation&lt;br&gt;Service" style="rounded=0;whiteSpace=wrap;html=1;hachureGap=4;pointerEvents=0;" vertex="1" parent="QFJzrtwfQx3YCAmN0TuH-7">
          <mxGeometry x="20" y="20" width="120" height="60" as="geometry" />
        </mxCell>
        <mxCell id="QFJzrtwfQx3YCAmN0TuH-21" style="edgeStyle=none;curved=1;rounded=0;orthogonalLoop=1;jettySize=auto;html=1;exitX=0;exitY=0.5;exitDx=0;exitDy=0;endArrow=open;startSize=14;endSize=14;sourcePerimeterSpacing=8;targetPerimeterSpacing=8;" edge="1" parent="1" source="QFJzrtwfQx3YCAmN0TuH-8" target="QFJzrtwfQx3YCAmN0TuH-2">
          <mxGeometry relative="1" as="geometry">
            <mxPoint x="100" y="200" as="targetPoint" />
          </mxGeometry>
        </mxCell>
        <mxCell id="QFJzrtwfQx3YCAmN0TuH-8" value="LB" style="rhombus;whiteSpace=wrap;html=1;hachureGap=4;pointerEvents=0;" vertex="1" parent="1">
          <mxGeometry x="180" y="160" width="80" height="80" as="geometry" />
        </mxCell>
        <mxCell id="QFJzrtwfQx3YCAmN0TuH-9" value="" style="group" vertex="1" connectable="0" parent="1">
          <mxGeometry x="320" y="270" width="140" height="80" as="geometry" />
        </mxCell>
        <mxCell id="QFJzrtwfQx3YCAmN0TuH-10" value="Aggregation&lt;br&gt;Service" style="rounded=0;whiteSpace=wrap;html=1;hachureGap=4;pointerEvents=0;" vertex="1" parent="QFJzrtwfQx3YCAmN0TuH-9">
          <mxGeometry width="120" height="60" as="geometry" />
        </mxCell>
        <mxCell id="QFJzrtwfQx3YCAmN0TuH-11" value="Aggregation&lt;br&gt;Service" style="rounded=0;whiteSpace=wrap;html=1;hachureGap=4;pointerEvents=0;" vertex="1" parent="QFJzrtwfQx3YCAmN0TuH-9">
          <mxGeometry x="10" y="10" width="120" height="60" as="geometry" />
        </mxCell>
        <mxCell id="QFJzrtwfQx3YCAmN0TuH-12" value="QuadTree&lt;br&gt;Service" style="rounded=0;whiteSpace=wrap;html=1;hachureGap=4;pointerEvents=0;" vertex="1" parent="QFJzrtwfQx3YCAmN0TuH-9">
          <mxGeometry x="20" y="20" width="120" height="60" as="geometry" />
        </mxCell>
        <mxCell id="QFJzrtwfQx3YCAmN0TuH-13" value="" style="group" vertex="1" connectable="0" parent="1">
          <mxGeometry x="320" y="380" width="140" height="80" as="geometry" />
        </mxCell>
        <mxCell id="QFJzrtwfQx3YCAmN0TuH-14" value="Aggregation&lt;br&gt;Service" style="rounded=0;whiteSpace=wrap;html=1;hachureGap=4;pointerEvents=0;" vertex="1" parent="QFJzrtwfQx3YCAmN0TuH-13">
          <mxGeometry width="120" height="60" as="geometry" />
        </mxCell>
        <mxCell id="QFJzrtwfQx3YCAmN0TuH-15" value="Aggregation&lt;br&gt;Service" style="rounded=0;whiteSpace=wrap;html=1;hachureGap=4;pointerEvents=0;" vertex="1" parent="QFJzrtwfQx3YCAmN0TuH-13">
          <mxGeometry x="10" y="10" width="120" height="60" as="geometry" />
        </mxCell>
        <mxCell id="QFJzrtwfQx3YCAmN0TuH-16" value="Driver Location&lt;br&gt;Service" style="rounded=0;whiteSpace=wrap;html=1;hachureGap=4;pointerEvents=0;" vertex="1" parent="QFJzrtwfQx3YCAmN0TuH-13">
          <mxGeometry x="20" y="20" width="120" height="60" as="geometry" />
        </mxCell>
        <mxCell id="QFJzrtwfQx3YCAmN0TuH-17" value="QuadTree&lt;br&gt;Index" style="shape=cylinder3;whiteSpace=wrap;html=1;boundedLbl=1;backgroundOutline=1;size=15;hachureGap=4;pointerEvents=0;" vertex="1" parent="1">
          <mxGeometry x="590" y="270" width="60" height="80" as="geometry" />
        </mxCell>
        <mxCell id="QFJzrtwfQx3YCAmN0TuH-18" style="edgeStyle=none;curved=1;rounded=0;orthogonalLoop=1;jettySize=auto;html=1;exitX=1;exitY=0.5;exitDx=0;exitDy=0;entryX=0.017;entryY=0.588;entryDx=0;entryDy=0;entryPerimeter=0;endArrow=open;startSize=14;endSize=14;sourcePerimeterSpacing=8;targetPerimeterSpacing=8;" edge="1" parent="1" source="QFJzrtwfQx3YCAmN0TuH-12" target="QFJzrtwfQx3YCAmN0TuH-17">
          <mxGeometry relative="1" as="geometry" />
        </mxCell>
        <mxCell id="QFJzrtwfQx3YCAmN0TuH-22" style="edgeStyle=none;curved=1;rounded=0;orthogonalLoop=1;jettySize=auto;html=1;exitX=0;exitY=0.5;exitDx=0;exitDy=0;endArrow=open;startSize=14;endSize=14;sourcePerimeterSpacing=8;targetPerimeterSpacing=8;" edge="1" parent="1" source="QFJzrtwfQx3YCAmN0TuH-19" target="QFJzrtwfQx3YCAmN0TuH-4">
          <mxGeometry relative="1" as="geometry" />
        </mxCell>
        <mxCell id="QFJzrtwfQx3YCAmN0TuH-19" value="LB" style="rhombus;whiteSpace=wrap;html=1;hachureGap=4;pointerEvents=0;" vertex="1" parent="1">
          <mxGeometry x="180" y="380" width="80" height="80" as="geometry" />
        </mxCell>
        <mxCell id="QFJzrtwfQx3YCAmN0TuH-23" style="edgeStyle=none;curved=1;rounded=0;orthogonalLoop=1;jettySize=auto;html=1;exitX=0;exitY=0.5;exitDx=0;exitDy=0;entryX=1;entryY=0.5;entryDx=0;entryDy=0;endArrow=open;startSize=14;endSize=14;sourcePerimeterSpacing=8;targetPerimeterSpacing=8;" edge="1" parent="1" source="QFJzrtwfQx3YCAmN0TuH-6" target="QFJzrtwfQx3YCAmN0TuH-8">
          <mxGeometry relative="1" as="geometry" />
        </mxCell>
        <mxCell id="QFJzrtwfQx3YCAmN0TuH-24" style="edgeStyle=none;curved=1;rounded=0;orthogonalLoop=1;jettySize=auto;html=1;exitX=0.5;exitY=0;exitDx=0;exitDy=0;endArrow=open;startSize=14;endSize=14;sourcePerimeterSpacing=8;targetPerimeterSpacing=8;" edge="1" parent="1" source="QFJzrtwfQx3YCAmN0TuH-12">
          <mxGeometry relative="1" as="geometry">
            <mxPoint x="400" y="240" as="targetPoint" />
          </mxGeometry>
        </mxCell>
        <mxCell id="QFJzrtwfQx3YCAmN0TuH-25" style="edgeStyle=none;curved=1;rounded=0;orthogonalLoop=1;jettySize=auto;html=1;exitX=0.5;exitY=1;exitDx=0;exitDy=0;endArrow=open;startSize=14;endSize=14;sourcePerimeterSpacing=8;targetPerimeterSpacing=8;" edge="1" parent="1" source="QFJzrtwfQx3YCAmN0TuH-12">
          <mxGeometry relative="1" as="geometry">
            <mxPoint x="400" y="400" as="targetPoint" />
          </mxGeometry>
        </mxCell>
        <mxCell id="QFJzrtwfQx3YCAmN0TuH-26" style="edgeStyle=none;curved=1;rounded=0;orthogonalLoop=1;jettySize=auto;html=1;exitX=0;exitY=0.5;exitDx=0;exitDy=0;entryX=1;entryY=0.5;entryDx=0;entryDy=0;endArrow=open;startSize=14;endSize=14;sourcePerimeterSpacing=8;targetPerimeterSpacing=8;" edge="1" parent="1" source="QFJzrtwfQx3YCAmN0TuH-16" target="QFJzrtwfQx3YCAmN0TuH-19">
          <mxGeometry relative="1" as="geometry" />
        </mxCell>
        <mxCell id="QFJzrtwfQx3YCAmN0TuH-27" value="Location&lt;br&gt;DB" style="shape=cylinder3;whiteSpace=wrap;html=1;boundedLbl=1;backgroundOutline=1;size=15;hachureGap=4;pointerEvents=0;" vertex="1" parent="1">
          <mxGeometry x="590" y="385" width="60" height="80" as="geometry" />
        </mxCell>
        <mxCell id="QFJzrtwfQx3YCAmN0TuH-28" style="edgeStyle=none;curved=1;rounded=0;orthogonalLoop=1;jettySize=auto;html=1;exitX=1;exitY=0.5;exitDx=0;exitDy=0;entryX=0;entryY=0.5;entryDx=0;entryDy=0;entryPerimeter=0;endArrow=open;startSize=14;endSize=14;sourcePerimeterSpacing=8;targetPerimeterSpacing=8;" edge="1" parent="1" source="QFJzrtwfQx3YCAmN0TuH-16" target="QFJzrtwfQx3YCAmN0TuH-27">
          <mxGeometry relative="1" as="geometry" />
        </mxCell>
      </root>
    </mxGraphModel>
  </diagram>
</mxfile>
